<?xml version="1.0" encoding="utf-8"?>
<!-- Generator: Adobe Illustrator 24.1.2, SVG Export Plug-In . SVG Version: 6.00 Build 0)  -->
<svg version="1.1" id="Layer_1" xmlns="http://www.w3.org/2000/svg" xmlns:xlink="http://www.w3.org/1999/xlink" x="0px" y="0px"
	 viewBox="0 0 1280 1024" style="enable-background:new 0 0 1280 1024;" xml:space="preserve">
<style type="text/css">
	.st0{display:none;}
	.st1{fill:url(#SVGID_1_);}
	.st2{fill:url(#SVGID_2_);}
	.st3{fill:url(#SVGID_3_);}
	.st4{fill:url(#SVGID_4_);}
	.st5{fill:url(#SVGID_5_);}
</style>
<rect class="st0" width="1280" height="1024"/>
<g>
	<g>
		
			<radialGradient id="SVGID_1_" cx="600.7524" cy="716.3193" r="187.8282" gradientTransform="matrix(1.4995 -0.3242 0.0866 0.4007 -322.8691 416.54)" gradientUnits="userSpaceOnUse">
			<stop  offset="0.4774" style="stop-color:#3E2E22"/>
			<stop  offset="0.5101" style="stop-color:#755D4A"/>
			<stop  offset="0.5402" style="stop-color:#8E6E5B"/>
			<stop  offset="0.5879" style="stop-color:#826458"/>
			<stop  offset="0.6721" style="stop-color:#372E2A"/>
			<stop  offset="0.7261" style="stop-color:#5F4B42"/>
			<stop  offset="0.7798" style="stop-color:#91715C"/>
			<stop  offset="0.8719" style="stop-color:#A27B6B"/>
			<stop  offset="0.9271" style="stop-color:#7C6457"/>
			<stop  offset="0.9623" style="stop-color:#755E52"/>
			<stop  offset="1" style="stop-color:#584C37"/>
			<stop  offset="1" style="stop-color:#665142"/>
		</radialGradient>
		<path class="st1" d="M921.64,447.89c-6.13-28.35-70.47-40.34-160.14-34.38l-3.05,23.92c50.72-0.34,85.32,8.72,89.16,26.47
			c6.63,30.64-80.96,75.58-195.62,100.37s-212.99,20.05-219.61-10.59C425.76,523.04,513.34,478.1,628,453.3
			c11.9-2.57,23.62-4.82,35.08-6.76l2.71-21.24c-13.79,2.41-27.84,5.15-42.07,8.22c-155.3,33.58-274.34,94.66-265.37,136.16
			c8.97,41.5,142.62,47.94,297.91,14.36S930.61,489.39,921.64,447.89z"/>
		
			<radialGradient id="SVGID_2_" cx="600.7527" cy="716.319" r="230.7659" gradientTransform="matrix(1.4995 -0.3242 0.0866 0.4007 -322.8691 416.54)" gradientUnits="userSpaceOnUse">
			<stop  offset="0.4774" style="stop-color:#3E2E22"/>
			<stop  offset="0.5101" style="stop-color:#755D4A"/>
			<stop  offset="0.5402" style="stop-color:#8E6E5B"/>
			<stop  offset="0.5738" style="stop-color:#91715C"/>
			<stop  offset="0.7864" style="stop-color:#A27B6B"/>
			<stop  offset="0.8279" style="stop-color:#372E2A"/>
			<stop  offset="0.8618" style="stop-color:#5F4B42"/>
			<stop  offset="0.9296" style="stop-color:#7C6457"/>
			<stop  offset="0.9585" style="stop-color:#584C37"/>
			<stop  offset="1" style="stop-color:#665142"/>
		</radialGradient>
		<path class="st2" d="M986.02,433.96c-8.11-37.52-98.71-51.74-222-40.25l-2.31,18.08c92.54-6.41,159.11,5.77,165.41,34.91
			c9.15,42.31-112.21,104.58-270.54,138.81c-158.32,34.23-294.57,27.67-303.72-14.64c-9.15-42.31,112.21-104.58,270.54-138.81
			c14.41-3.12,28.63-5.89,42.59-8.33l2.15-16.89c-15.8,2.81-31.87,5.96-48.14,9.48c-191.1,41.32-337.07,116.22-326.03,167.29
			c11.04,51.07,174.91,58.97,366.02,17.65S997.07,485.03,986.02,433.96z"/>
	</g>
	
		<radialGradient id="SVGID_3_" cx="638.1805" cy="367.9412" r="262.8712" gradientTransform="matrix(0.1981 0.9163 -1.9168 0.4145 1188.49 -355.0464)" gradientUnits="userSpaceOnUse">
		<stop  offset="0" style="stop-color:#FFD38D"/>
		<stop  offset="0.0119" style="stop-color:#C1A071"/>
		<stop  offset="0.0314" style="stop-color:#534741"/>
		<stop  offset="0.1005" style="stop-color:#9B7A57"/>
		<stop  offset="0.3028" style="stop-color:#D2A568"/>
		<stop  offset="0.3442" style="stop-color:#CE9E56"/>
		<stop  offset="0.381" style="stop-color:#C89751"/>
		<stop  offset="0.5553" style="stop-color:#EFB95F"/>
		<stop  offset="0.6608" style="stop-color:#88602A"/>
		<stop  offset="0.7632" style="stop-color:#D2A067"/>
		<stop  offset="0.8518" style="stop-color:#CB9D69"/>
		<stop  offset="0.9221" style="stop-color:#BE976C"/>
		<stop  offset="0.9673" style="stop-color:#AB8767"/>
		<stop  offset="1" style="stop-color:#665142"/>
	</radialGradient>
	<path class="st3" d="M771.78,483.65c14.68,67.87-32.12,135.58-104.52,151.23s-142.98-26.67-157.66-94.54
		c-14.68-67.87,32.12-135.58,104.52-151.23C686.52,373.46,757.11,415.79,771.78,483.65z"/>
	<g id="bot">
		
			<radialGradient id="SVGID_4_" cx="600.7524" cy="716.3193" r="187.8282" gradientTransform="matrix(1.4995 -0.3242 0.0866 0.4007 -322.8691 416.54)" gradientUnits="userSpaceOnUse">
			<stop  offset="0.4774" style="stop-color:#3E2E22"/>
			<stop  offset="0.5101" style="stop-color:#755D4A"/>
			<stop  offset="0.5402" style="stop-color:#8E6E5B"/>
			<stop  offset="0.5879" style="stop-color:#826458"/>
			<stop  offset="0.6721" style="stop-color:#372E2A"/>
			<stop  offset="0.7261" style="stop-color:#5F4B42"/>
			<stop  offset="0.7798" style="stop-color:#91715C"/>
			<stop  offset="0.8719" style="stop-color:#A27B6B"/>
			<stop  offset="0.9271" style="stop-color:#7C6457"/>
			<stop  offset="0.9623" style="stop-color:#755E52"/>
			<stop  offset="1" style="stop-color:#584C37"/>
			<stop  offset="1" style="stop-color:#665142"/>
		</radialGradient>
		<path class="st4" d="M847.55,463.63c0.02,0.09,0.05,0.17,0.07,0.26c6.63,30.64-80.96,75.58-195.62,100.37
			c-114.66,24.79-212.99,20.05-219.61-10.59c-0.02-0.09-0.03-0.18-0.04-0.27l-74.03,16.01c0.02,0.09,0.03,0.18,0.04,0.27
			c8.97,41.5,142.62,47.94,297.91,14.36c155.3-33.58,274.34-94.66,265.37-136.16c-0.02-0.09-0.05-0.17-0.07-0.26L847.55,463.63z"/>
		
			<radialGradient id="SVGID_5_" cx="600.7527" cy="716.319" r="230.7659" gradientTransform="matrix(1.4995 -0.3242 0.0866 0.4007 -322.8691 416.54)" gradientUnits="userSpaceOnUse">
			<stop  offset="0.4774" style="stop-color:#3E2E22"/>
			<stop  offset="0.5101" style="stop-color:#755D4A"/>
			<stop  offset="0.5402" style="stop-color:#8E6E5B"/>
			<stop  offset="0.5738" style="stop-color:#91715C"/>
			<stop  offset="0.7864" style="stop-color:#A27B6B"/>
			<stop  offset="0.8279" style="stop-color:#372E2A"/>
			<stop  offset="0.8618" style="stop-color:#5F4B42"/>
			<stop  offset="0.9296" style="stop-color:#7C6457"/>
			<stop  offset="0.9585" style="stop-color:#584C37"/>
			<stop  offset="1" style="stop-color:#665142"/>
		</radialGradient>
		<path class="st5" d="M927.06,446.44c0.02,0.09,0.05,0.17,0.07,0.26c9.15,42.31-112.21,104.58-270.54,138.81
			c-158.32,34.23-294.57,27.67-303.72-14.64c-0.02-0.09-0.03-0.18-0.04-0.27l-58.9,12.74c0.02,0.09,0.03,0.18,0.05,0.26
			c11.04,51.07,174.91,58.97,366.02,17.65c191.1-41.32,337.07-116.22,326.03-167.29c-0.02-0.09-0.04-0.17-0.06-0.26L927.06,446.44z"
			/>
	</g>
</g>
</svg>
